<?xml version="1.0" encoding="utf-8"?>
<!-- Generator: Adobe Illustrator 24.3.0, SVG Export Plug-In . SVG Version: 6.00 Build 0)  -->
<svg version="1.1" id="Warstwa_1" xmlns="http://www.w3.org/2000/svg" xmlns:xlink="http://www.w3.org/1999/xlink" x="0px" y="0px"
	 viewBox="0 0 544.9 544.9" style="enable-background:new 0 0 544.9 544.9;" xml:space="preserve">
<style type="text/css">
	.st0{display:none;}
	.st1{display:inline;fill:none;stroke:#000000;stroke-miterlimit:10;}
	.st2{display:inline;fill:#FFFFFF;stroke:#000000;stroke-miterlimit:10;}
	.st3{fill:#FC4445;}
	.st4{fill:url(#SVGID_1_);}
	.st5{fill:url(#SVGID_2_);}
	.st6{fill:url(#SVGID_3_);}
	.st7{display:none;fill:url(#SVGID_4_);}
	.st8{fill:url(#SVGID_5_);}
	.st9{fill:url(#SVGID_6_);}
</style>
<g id="Warstwa_2_1_" class="st0">
	<rect x="1.7" y="156.1" class="st1" width="235.2" height="235.2"/>
	<circle class="st1" cx="207.4" cy="244.1" r="88.1"/>
	<rect x="307.8" y="156.1" class="st1" width="235.2" height="235.2"/>
	<rect x="119.3" y="243.5" class="st1" width="147" height="147"/>
	<rect x="278.6" y="244.2" class="st1" width="147" height="147"/>
	<circle class="st2" cx="352.1" cy="319.3" r="73.5"/>
	<circle class="st1" cx="1.9" cy="273.2" r="117.2"/>
</g>
<g id="Warstwa_3">
	<polygon class="st3" points="266.3,400.4 95.2,400.4 242.1,253.5 119.3,253.5 119.3,233.5 290.4,233.5 143.5,380.4 266.3,380.4 	
		"/>
	<path class="st3" d="M353.9,400.6c-43.1,0-63.6-23.3-73.3-42.8c-10.1-20.5-10.2-40.8-10.2-41.6v-62.7l20-20v82.7
		c0,2.6,1.1,64.4,63.5,64.4s63.5-61.8,63.5-64.5V152.4h20v163.8c0,0.9-0.1,21.2-10.2,41.6C417.6,377.3,397,400.6,353.9,400.6z"/>
	<rect x="232.1" y="146.1" class="st3" width="310.9" height="20"/>
	
		<linearGradient id="SVGID_1_" gradientUnits="userSpaceOnUse" x1="128.7" y1="-229.5013" x2="179.9" y2="-229.5013" gradientTransform="matrix(1 0 0 -1 0 13.9987)">
		<stop  offset="0" style="stop-color:#9C292E"/>
		<stop  offset="2.195466e-02" style="stop-color:#A62C30"/>
		<stop  offset="9.211856e-02" style="stop-color:#C13337"/>
		<stop  offset="0.1727" style="stop-color:#D7393C"/>
		<stop  offset="0.2668" style="stop-color:#E83E40"/>
		<stop  offset="0.3832" style="stop-color:#F34243"/>
		<stop  offset="0.5466" style="stop-color:#FA4345"/>
		<stop  offset="1" style="stop-color:#FC4445"/>
	</linearGradient>
	<rect x="128.7" y="233.5" class="st4" width="51.2" height="20"/>
	
		<linearGradient id="SVGID_2_" gradientUnits="userSpaceOnUse" x1="271.6572" y1="-238.6085" x2="299.6825" y2="-266.6338" gradientTransform="matrix(1 0 0 -1 0 13.9987)">
		<stop  offset="0" style="stop-color:#9C292E"/>
		<stop  offset="2.195466e-02" style="stop-color:#A62C30"/>
		<stop  offset="9.211856e-02" style="stop-color:#C13337"/>
		<stop  offset="0.1727" style="stop-color:#D7393C"/>
		<stop  offset="0.2668" style="stop-color:#E83E40"/>
		<stop  offset="0.3832" style="stop-color:#F34243"/>
		<stop  offset="0.5466" style="stop-color:#FA4345"/>
		<stop  offset="1" style="stop-color:#FC4445"/>
	</linearGradient>
	<polygon class="st5" points="270.5,253.4 290.4,233.5 290.4,289.3 270.5,289.3 	"/>
	
		<linearGradient id="SVGID_3_" gradientUnits="userSpaceOnUse" x1="427.4" y1="-152.5957" x2="427.4" y2="-190.4681" gradientTransform="matrix(1 0 0 -1 0 13.9987)">
		<stop  offset="0" style="stop-color:#9C292E"/>
		<stop  offset="2.195466e-02" style="stop-color:#A62C30"/>
		<stop  offset="9.211856e-02" style="stop-color:#C13337"/>
		<stop  offset="0.1727" style="stop-color:#D7393C"/>
		<stop  offset="0.2668" style="stop-color:#E83E40"/>
		<stop  offset="0.3832" style="stop-color:#F34243"/>
		<stop  offset="0.5466" style="stop-color:#FA4345"/>
		<stop  offset="1" style="stop-color:#FC4445"/>
	</linearGradient>
	<rect x="417.4" y="166.1" class="st6" width="20" height="37.7"/>
	
		<linearGradient id="SVGID_4_" gradientUnits="userSpaceOnUse" x1="236.9" y1="-142.1013" x2="291.5087" y2="-142.1013" gradientTransform="matrix(1 0 0 -1 0 13.9987)">
		<stop  offset="0" style="stop-color:#9C292E"/>
		<stop  offset="3.509926e-02" style="stop-color:#AB2D32"/>
		<stop  offset="0.1154" style="stop-color:#C83539"/>
		<stop  offset="0.2015" style="stop-color:#DE3B3E"/>
		<stop  offset="0.2949" style="stop-color:#EE4042"/>
		<stop  offset="0.4011" style="stop-color:#F74244"/>
		<stop  offset="0.5477" style="stop-color:#FA4345"/>
		<stop  offset="0.5536" style="stop-color:#FA4345"/>
		<stop  offset="1" style="stop-color:#FC4445"/>
	</linearGradient>
	<rect x="236.9" y="146.1" class="st7" width="58.1" height="20"/>
	<path class="st3" d="M1.9,400.4v-20c43.6,0,74.8-17.7,92.7-52.5c13.8-26.9,14.4-54.5,14.5-54.8l0.2-29.7c0-50.2,27-74.1,49.6-85.4
		c23.8-11.8,47.5-12,48.5-12h29.5v20h-29.5c-3.2,0-78.1,1.3-78.1,77.4l-0.2,29.9c0,1.3-0.6,32-16.3,63
		C97.9,365.6,66.7,400.4,1.9,400.4z"/>
	
		<linearGradient id="SVGID_5_" gradientUnits="userSpaceOnUse" x1="234.903" y1="-245.9407" x2="206.397" y2="-217.4349" gradientTransform="matrix(1 0 0 -1 0 13.9987)">
		<stop  offset="0" style="stop-color:#9C292E"/>
		<stop  offset="3.509926e-02" style="stop-color:#AB2D32"/>
		<stop  offset="0.1154" style="stop-color:#C83539"/>
		<stop  offset="0.2015" style="stop-color:#DE3B3E"/>
		<stop  offset="0.2949" style="stop-color:#EE4042"/>
		<stop  offset="0.4011" style="stop-color:#F74244"/>
		<stop  offset="0.5477" style="stop-color:#FA4345"/>
		<stop  offset="0.5536" style="stop-color:#FA4345"/>
		<stop  offset="1" style="stop-color:#FC4445"/>
	</linearGradient>
	<polygon class="st8" points="242.2,253.4 262.2,233.4 194.7,233.4 174.6,253.5 	"/>
	
		<linearGradient id="SVGID_6_" gradientUnits="userSpaceOnUse" x1="154.3665" y1="-356.6677" x2="197.1086" y2="-399.4099" gradientTransform="matrix(1 0 0 -1 0 13.9987)">
		<stop  offset="0" style="stop-color:#9C292E"/>
		<stop  offset="3.509926e-02" style="stop-color:#AB2D32"/>
		<stop  offset="0.1154" style="stop-color:#C83539"/>
		<stop  offset="0.2015" style="stop-color:#DE3B3E"/>
		<stop  offset="0.2949" style="stop-color:#EE4042"/>
		<stop  offset="0.4011" style="stop-color:#F74244"/>
		<stop  offset="0.5477" style="stop-color:#FA4345"/>
		<stop  offset="0.5536" style="stop-color:#FA4345"/>
		<stop  offset="1" style="stop-color:#FC4445"/>
	</linearGradient>
	<polygon class="st9" points="143.5,380.4 123.5,400.4 224.7,400.4 224.7,380.4 	"/>
</g>
<g id="Warstwa_4">
</g>
</svg>
